PathFileType  4	(X/Y/Z) C:\Users\antoi\Documents\MyRepositories\mobilecap\ResultsAnalysis
DataRate	CameraRate	NumFrames	NumMarkers	Units	OrigDataRate	OrigDataStartFrame	OrigNumFrames
100.0	100.0	7	51	mm	100.0	150	299
Frame#	Time	r_knee			r_shank_antsup			r_ankle			r_calc			r_5meta			r_toe			L_knee			L_shank_antsup			L_ankle			L_calc			L_5meta			L_toe			r_sh2			r_sh3			r_sh4			L_sh2			L_sh3			r_thigh1			r_thigh2			r_thigh3			r_thigh4			r_thigh5			L_thigh1			L_thigh2			L_thigh3			L_thigh4			r.ASIS			r.PSIS			L.ASIS			L.PSIS			C7			R_Shoulder			L_Shoulder			R_Sternum			L_Sternum			R_humerus			R_elbow_med			R_elbow_lat			R_forearm			R_wrist_radius			R_wrist_ulna			L_humerus			L_elbow_med			L_elbow_lat			L_forearm			L_wrist_radius			L_wrist_ulna			R_HJC			L_HJC			R_HJC_reg			L_HJC_reg			
		X1	Y1	Z1	X2	Y2	Z2	X3	Y3	Z3	X4	Y4	Z4	X5	Y5	Z5	X6	Y6	Z6	X7	Y7	Z7	X8	Y8	Z8	X9	Y9	Z9	X10	Y10	Z10	X11	Y11	Z11	X12	Y12	Z12	X13	Y13	Z13	X14	Y14	Z14	X15	Y15	Z15	X16	Y16	Z16	X17	Y17	Z17	X18	Y18	Z18	X19	Y19	Z19	X20	Y20	Z20	X21	Y21	Z21	X22	Y22	Z22	X23	Y23	Z23	X24	Y24	Z24	X25	Y25	Z25	X26	Y26	Z26	X27	Y27	Z27	X28	Y28	Z28	X29	Y29	Z29	X30	Y30	Z30	X31	Y31	Z31	X32	Y32	Z32	X33	Y33	Z33	X34	Y34	Z34	X35	Y35	Z35	X36	Y36	Z36	X37	Y37	Z37	X38	Y38	Z38	X39	Y39	Z39	X40	Y40	Z40	X41	Y41	Z41	X42	Y42	Z42	X43	Y43	Z43	X44	Y44	Z44	X45	Y45	Z45	X46	Y46	Z46	X47	Y47	Z47	X48	Y48	Z48	X49	Y49	Z49	X50	Y50	Z50	X51	Y51	Z51	

150	1.49000000	-562.55896	803.93450	-378.63360	-540.73244	684.72735	-381.66071	-671.48958	432.64137	-398.89015	-719.59469	430.83947	-456.47963	-611.15819	315.81413	-369.35889	-563.93132	315.08606	-404.76425	-542.53077	815.89652	-786.65855	-516.92100	699.26363	-755.37627	-681.51873	456.24532	-791.66374	-729.34982	451.86574	-737.98835	-622.19286	333.10365	-815.45643	-570.55005	328.76583	-770.32452	-573.11332	576.59423	-389.61356	-603.43050	698.97805	-342.03137	-648.03825	597.90938	-362.00172	-566.02797	741.34380	-817.42682	-609.98050	629.56363	-836.66052	-573.03851	1116.85689	-402.38919	-532.56718	1015.27323	-387.72520	-571.19905	978.84750	-347.28339	-673.61922	1080.09432	-369.24615	-627.09579	974.65620	-351.96295	-578.43258	1113.47281	-771.17506	-513.30318	988.71249	-780.92203	-677.70207	1071.12674	-797.51509	-612.75359	944.67933	-803.55053	-556.85475	1233.95912	-457.22028	-718.16710	1322.26828	-525.24271	-557.10709	1238.28672	-699.36878	-721.46602	1326.96418	-638.09526	-553.79180	1745.67280	-567.93297	-492.82119	1708.18826	-420.84999	-485.42688	1722.47036	-714.43918	-442.42647	1662.75588	-553.34563	-441.41077	1662.45443	-592.58734	-521.50833	1594.87215	-340.97655	-672.57505	1442.25558	-367.56340	-640.35512	1445.22288	-298.42876	-616.50743	1317.13537	-276.93731	-610.02216	1214.47019	-272.29260	-639.42209	1217.89584	-248.07326	-503.13083	1586.50640	-799.53637	-639.54042	1430.98853	-791.90379	-602.30444	1440.29916	-856.30441	-577.67971	1341.49636	-878.61988	-591.07811	1210.63022	-880.00132	-601.58930	1216.71914	-911.58902	-661.29560	1188.46073	-483.38854	-657.22259	1187.14617	-672.71607	-641.83087	1184.52419	-490.62572	-646.49768	1191.16729	-650.26555	
151	1.50000000	-552.34719	791.59026	-377.97255	-525.05939	673.51858	-380.50531	-642.25953	414.18536	-397.11703	-690.10961	410.92728	-453.82028	-577.35648	300.39063	-366.37114	-529.96013	301.64035	-401.80271	-531.43609	804.60987	-788.55104	-500.70045	689.18188	-758.44158	-653.67002	438.66536	-794.32383	-700.67528	432.17911	-740.18122	-589.01968	317.87823	-818.42429	-536.87988	315.93406	-773.94295	-552.24713	564.23201	-387.38002	-588.65615	684.96293	-340.81691	-628.08216	581.63612	-360.35141	-552.49774	729.18734	-819.71122	-590.79935	615.87810	-839.88932	-562.52282	1104.57453	-402.23715	-523.13370	1002.45984	-387.18222	-561.32520	966.30450	-347.44208	-662.91828	1068.12507	-368.97455	-617.18640	962.48457	-352.07147	-569.08040	1102.06923	-772.83171	-503.65174	977.76853	-783.04991	-667.85982	1060.21398	-796.25728	-603.32770	933.31382	-804.38036	-546.66093	1220.86039	-458.09773	-707.10451	1310.82875	-525.21195	-547.96566	1225.86295	-700.25461	-710.62830	1315.84234	-637.99130	-539.79231	1731.98266	-567.93583	-479.31452	1693.32859	-420.23470	-471.77846	1707.43834	-714.91065	-429.13388	1648.36692	-553.36006	-428.05856	1648.12164	-592.22318	-512.15221	1580.91203	-340.40680	-667.98502	1434.03382	-369.10896	-637.16254	1435.81843	-299.45436	-621.49054	1306.80289	-276.39391	-622.04006	1203.62508	-270.91892	-651.54571	1209.48264	-246.93641	-494.56107	1571.92111	-800.15017	-637.66555	1422.91830	-791.75860	-600.34284	1430.27299	-856.08615	-581.28530	1330.71835	-879.55197	-603.49532	1198.85321	-879.42756	-612.37022	1207.54104	-913.49824	-651.52505	1176.41251	-483.95164	-648.26353	1175.58132	-673.30035	-632.36296	1172.31934	-491.42978	-637.35102	1179.41645	-651.05288	
152	1.51000000	-542.18842	778.22310	-377.33523	-509.46157	661.68136	-379.10860	-613.03125	396.48424	-394.30767	-660.61418	391.04566	-451.03467	-543.08947	285.14888	-363.70318	-496.01782	288.48263	-399.15005	-520.78495	791.83989	-789.67128	-484.80860	678.36322	-761.26716	-625.68315	420.75735	-797.07793	-671.69674	412.23467	-742.80222	-555.54356	302.64301	-821.79878	-503.18409	302.93043	-777.31957	-531.42777	551.34183	-385.05270	-573.97923	670.29447	-339.68199	-608.01755	565.09937	-358.65804	-539.20314	716.08762	-821.89869	-571.96965	601.15775	-842.45573	-552.17191	1091.06670	-402.34936	-513.16824	988.95029	-387.00801	-551.44297	952.77976	-347.38225	-651.85532	1054.64768	-369.04561	-607.36631	949.19966	-352.30855	-559.85434	1089.36963	-774.81710	-494.09932	965.65879	-784.70886	-659.04197	1048.00469	-796.31433	-594.06360	920.69195	-804.89080	-536.14357	1206.71595	-458.56949	-695.99187	1298.35307	-525.13349	-537.86679	1211.96572	-700.41982	-699.67211	1303.63161	-637.76110	-525.85935	1717.16425	-568.05947	-466.09456	1677.35905	-419.70984	-458.28141	1691.25723	-715.38722	-416.40418	1633.46247	-552.48655	-414.80601	1632.57158	-592.08668	-502.85317	1566.08547	-339.91004	-663.36395	1424.92624	-370.93754	-633.84959	1425.73969	-300.59476	-626.28690	1296.21525	-276.26733	-633.81506	1193.25465	-269.89198	-663.24630	1201.35623	-246.23421	-486.14049	1556.28639	-800.68999	-635.42436	1413.93565	-791.04095	-598.39422	1419.50501	-855.67775	-584.89293	1319.47535	-880.25008	-614.84509	1188.17803	-880.13605	-623.02176	1198.33549	-914.90548	-641.55952	1163.34490	-484.09883	-638.69569	1162.71863	-673.45486	-622.35611	1158.99707	-491.79194	-627.56531	1166.46798	-651.19422	
153	1.52000000	-531.98304	763.87965	-376.71288	-493.97534	649.50461	-376.98804	-583.99653	379.32577	-391.06366	-631.39316	371.20058	-448.14471	-508.93373	270.35868	-361.09147	-462.37088	275.75748	-396.39575	-510.32312	777.99180	-790.82760	-469.03161	666.81293	-764.30354	-597.57759	402.70981	-800.06579	-642.34975	392.21010	-745.54059	-522.27363	287.02612	-824.95225	-469.73914	289.65680	-780.60138	-510.46276	537.80355	-382.91002	-559.23470	654.99760	-338.82316	-587.93143	548.22950	-357.16212	-525.97283	702.20460	-824.09177	-553.51686	585.76325	-844.66323	-541.67019	1076.38611	-402.71226	-503.07756	974.88381	-387.29175	-541.42732	938.42862	-347.11437	-641.36696	1040.09107	-369.59966	-597.49969	934.82384	-352.33516	-550.72780	1075.71177	-776.92257	-484.65885	952.26932	-786.18441	-651.07351	1033.37218	-796.28604	-584.86324	906.91506	-805.19025	-525.52521	1191.54334	-458.90106	-684.88904	1284.65953	-524.88135	-527.69884	1197.16120	-700.73524	-688.64377	1290.26760	-637.57414	-512.07798	1701.05835	-568.03479	-452.95375	1660.15993	-419.20477	-445.01317	1674.01379	-715.76172	-403.85682	1617.59771	-550.95957	-401.66679	1615.82913	-592.10562	-493.71537	1550.46578	-339.43616	-658.48518	1414.92496	-373.16368	-630.43808	1414.99477	-301.95864	-630.93069	1285.42863	-276.50463	-645.21844	1183.39285	-268.90379	-674.42636	1193.58366	-246.05755	-478.12973	1539.67971	-801.10354	-632.89811	1403.96996	-789.86079	-596.46412	1408.01704	-855.02209	-588.41586	1307.66143	-880.43747	-625.26126	1177.97140	-881.38596	-633.30753	1189.01140	-915.78172	-631.42717	1149.12736	-484.26218	-628.96100	1148.81391	-673.62267	-612.29168	1144.45164	-492.16007	-617.60198	1152.38206	-651.53529	
154	1.53000000	-521.41214	748.53900	-376.27358	-478.44510	636.87869	-374.71367	-555.47958	362.46249	-387.64788	-602.57087	351.54087	-445.26307	-475.60629	255.89727	-358.29776	-429.36331	263.36170	-393.35359	-499.76557	763.32552	-792.40225	-453.26040	654.55715	-767.51434	-569.25003	384.62464	-803.42493	-612.85922	372.63985	-748.36035	-489.65371	270.56021	-827.24458	-436.85617	275.93949	-784.00051	-489.61939	523.98534	-380.73816	-544.24808	639.14334	-338.12050	-567.74657	530.89333	-355.85417	-512.69420	687.59318	-826.27953	-535.02977	569.96569	-846.94112	-531.16654	1060.70315	-403.00090	-493.01828	959.56464	-387.79549	-531.30301	922.92453	-347.15907	-631.59081	1024.55179	-370.36398	-587.38141	919.40083	-352.07184	-541.36668	1061.10362	-778.45720	-475.23178	937.54334	-787.82173	-642.72267	1017.16690	-795.46885	-575.73352	892.04535	-805.41541	-515.00656	1175.22284	-459.51712	-673.88589	1269.79437	-524.65296	-517.62492	1181.56608	-701.63243	-677.63252	1275.78251	-637.39452	-498.38646	1683.68409	-567.75895	-439.72250	1641.75037	-418.57866	-432.10545	1655.59874	-716.13408	-390.75345	1599.79256	-549.79136	-388.52156	1597.90777	-592.03152	-484.73402	1533.92574	-339.05170	-653.29856	1404.04525	-375.71696	-626.95903	1403.44156	-303.77754	-635.46922	1274.46730	-277.04565	-656.28016	1173.65415	-268.44796	-685.17924	1185.97828	-246.57689	-470.29206	1522.14957	-801.37896	-630.20716	1393.01535	-788.31999	-594.51060	1395.60185	-853.95787	-591.77549	1295.26074	-880.09705	-634.84886	1167.76514	-882.61493	-643.00800	1179.40651	-916.14296	-621.24709	1133.67361	-484.79244	-619.28426	1134.00275	-674.15870	-602.38271	1128.76946	-492.94937	-607.68461	1137.24467	-652.49671	
155	1.54000000	-510.09339	732.16883	-376.17379	-462.74632	623.34161	-373.11101	-527.80490	345.63520	-384.14725	-574.17219	332.15985	-442.48291	-443.42285	241.35807	-355.55343	-397.38518	250.99102	-390.24734	-489.05672	747.85846	-794.25759	-437.55887	641.59927	-770.51728	-541.01909	366.38305	-806.72206	-583.61243	353.46193	-751.31812	-457.80978	253.69703	-829.21499	-404.74570	261.82693	-787.48671	-469.15736	509.99398	-378.38289	-528.97885	622.79528	-337.21042	-547.44064	513.31334	-354.52820	-499.29054	672.16247	-828.41541	-516.19574	553.54576	-849.19506	-520.78157	1044.16050	-403.14757	-482.82459	942.85637	-388.18790	-521.04838	906.27948	-347.39406	-621.71049	1007.90029	-370.93342	-577.00766	902.99190	-351.99664	-531.81519	1045.27870	-779.25880	-465.84413	921.58852	-789.70683	-633.53525	1000.57993	-794.40980	-566.63996	876.04958	-805.61204	-504.62127	1157.65749	-460.49552	-663.00494	1253.87618	-524.68962	-507.43335	1164.73749	-702.23364	-666.70693	1260.12116	-637.18209	-484.62336	1665.20089	-567.44433	-426.44742	1622.19255	-417.87554	-419.65294	1635.88418	-716.47228	-377.29675	1580.12435	-549.37311	-375.39000	1578.69513	-591.80283	-475.79194	1516.30374	-338.84905	-647.79965	1392.21632	-378.50615	-623.36430	1390.97464	-306.12994	-639.77671	1263.23439	-277.89651	-666.90659	1163.86827	-268.81531	-695.43003	1178.36513	-247.75172	-462.68183	1503.72068	-801.47888	-627.22029	1381.00192	-786.41693	-592.48605	1382.24633	-852.54761	-594.82180	1282.43834	-879.65708	-643.74132	1157.22329	-883.29188	-652.00690	1169.40323	-916.11906	-611.22109	1117.05754	-485.41329	-609.62082	1118.02908	-674.78237	-592.48838	1112.24281	-493.94341	-597.73044	1121.08692	-653.23813	
156	1.55000000	-498.14914	715.06157	-375.88751	-446.89592	608.59114	-372.12245	-501.13410	328.47381	-380.97800	-546.34922	312.80666	-439.96550	-412.54558	226.63274	-352.95807	-366.74291	238.44756	-387.11547	-478.14689	731.47397	-796.17380	-421.89872	627.75502	-773.22680	-513.53006	347.98198	-809.47465	-554.88453	333.78963	-754.12208	-426.77681	237.37440	-831.95675	-373.56558	247.66319	-791.14789	-448.95874	495.45765	-376.17127	-513.39209	605.85164	-336.13081	-527.15610	495.53914	-353.17941	-485.50750	655.81276	-830.56681	-497.07255	536.39888	-851.44646	-510.31496	1026.84980	-403.26619	-472.40634	925.30201	-388.38564	-510.51150	888.90792	-347.37970	-611.28946	990.29880	-371.12431	-566.45756	885.60742	-352.18045	-522.32854	1028.14602	-779.84121	-456.68545	904.65793	-791.61672	-624.04999	983.47417	-793.80113	-557.45533	858.94817	-805.92858	-494.33325	1138.92744	-461.58805	-652.20335	1236.82496	-524.75315	-497.23626	1146.53879	-702.32567	-655.93560	1243.19835	-637.08694	-470.83371	1645.64821	-567.14076	-413.36205	1601.48007	-417.23139	-407.60288	1615.01809	-716.66321	-364.16994	1559.35847	-549.38474	-362.51491	1558.08692	-591.88430	-466.81590	1497.51080	-338.83406	-642.05137	1379.33450	-381.39854	-619.47861	1377.54116	-308.89537	-643.62338	1251.53358	-279.28483	-676.94303	1153.98456	-269.96282	-704.96241	1170.52830	-249.66122	-455.37539	1484.42942	-801.44759	-623.79140	1367.82032	-784.24217	-590.30737	1368.02539	-850.83990	-597.37665	1269.11493	-879.20877	-652.16600	1145.85013	-882.83588	-660.20828	1158.90355	-915.79469	-601.34423	1099.31944	-485.88712	-599.99238	1100.73436	-675.25516	-582.54157	1094.80601	-494.81664	-587.81269	1103.80456	-653.45247	
